<svg width="18" height="18" viewBox="0 0 18 18" fill="none" xmlns="http://www.w3.org/2000/svg">
<path d="M0 16.5C0 16.8978 0.158035 17.2794 0.43934 17.5607C0.720644 17.842 1.10218 18 1.5 18H16.5C16.8978 18 17.2794 17.842 17.5607 17.5607C17.842 17.2794 18 16.8978 18 16.5V7.125C18 6.72718 17.842 6.34565 17.5607 6.06434C17.2794 5.78304 16.8978 5.625 16.5 5.625H15V3.938C15.0002 3.20668 14.7967 2.48977 14.4123 1.86762C14.0279 1.24548 13.4778 0.742697 12.8237 0.415642C12.1696 0.0885867 11.4373 -0.049814 10.7089 0.015955C9.98058 0.081724 9.28494 0.349063 8.7 0.788002C8.09918 0.489254 7.43209 0.34873 6.76181 0.379725C6.09154 0.41072 5.44025 0.612208 4.86957 0.965129C4.29889 1.31805 3.82769 1.81073 3.50054 2.39657C3.17339 2.9824 3.00111 3.64201 3 4.313V5.625H1.5C1.10218 5.625 0.720644 5.78304 0.43934 6.06434C0.158035 6.34565 0 6.72718 0 7.125L0 16.5ZM13.125 5.625H9V3.938C9 3.39099 9.2173 2.86639 9.60409 2.47959C9.99089 2.0928 10.5155 1.8755 11.0625 1.8755C11.6095 1.8755 12.1341 2.0928 12.5209 2.47959C12.9077 2.86639 13.125 3.39099 13.125 3.938V5.625ZM7.125 5.625H4.879V4.313C4.87847 3.76656 5.09496 3.24228 5.48089 2.85542C5.86681 2.46856 6.39056 2.2508 6.937 2.25C7.11709 2.24894 7.29646 2.27284 7.47 2.321C7.24164 2.82944 7.12403 3.38064 7.125 3.938V5.625ZM7.125 8.062C7.125 7.87644 7.18004 7.69505 7.28315 7.54077C7.38626 7.3865 7.53282 7.26627 7.70427 7.19531C7.87573 7.12434 8.06438 7.10583 8.24636 7.1421C8.42834 7.17837 8.59548 7.26781 8.72662 7.39909C8.85776 7.53037 8.94702 7.6976 8.9831 7.87962C9.01918 8.06164 9.00046 8.25027 8.92931 8.42165C8.85816 8.59303 8.73778 8.73946 8.5834 8.84241C8.42901 8.94536 8.24756 9.0002 8.062 9C7.8134 8.99974 7.57507 8.90079 7.39938 8.72491C7.22369 8.54903 7.125 8.3106 7.125 8.062ZM13.125 8.062C13.125 7.87648 13.18 7.69513 13.2831 7.54088C13.3861 7.38662 13.5326 7.2664 13.704 7.1954C13.8754 7.12441 14.064 7.10583 14.246 7.14203C14.4279 7.17822 14.5951 7.26755 14.7263 7.39874C14.8574 7.52992 14.9468 7.69705 14.983 7.87901C15.0192 8.06096 15.0006 8.24956 14.9296 8.42096C14.8586 8.59236 14.7384 8.73885 14.5841 8.84192C14.4299 8.94499 14.2485 9 14.063 9C13.8142 9 13.5756 8.90118 13.3997 8.72527C13.2238 8.54936 13.125 8.31077 13.125 8.062ZM3.375 8.25V15.375C3.375 15.5739 3.29598 15.7647 3.15533 15.9053C3.01468 16.046 2.82391 16.125 2.625 16.125C2.42609 16.125 2.23532 16.046 2.09467 15.9053C1.95402 15.7647 1.875 15.5739 1.875 15.375V8.25C1.875 8.05109 1.95402 7.86032 2.09467 7.71967C2.23532 7.57902 2.42609 7.5 2.625 7.5C2.82391 7.5 3.01468 7.57902 3.15533 7.71967C3.29598 7.86032 3.375 8.05109 3.375 8.25Z" fill="#848B96"/>
</svg>
