<svg width="24" height="25" viewBox="0 0 24 25" fill="none" xmlns="http://www.w3.org/2000/svg">
<path d="M21.244 1.178C20.6243 0.559408 19.7845 0.211975 18.909 0.211975C18.0334 0.211975 17.1936 0.559408 16.574 1.178L15.401 2.353L2.96098 14.79L2.93498 14.817C2.92898 14.823 2.92898 14.83 2.92198 14.83C2.90898 14.85 2.88898 14.869 2.87598 14.889C2.86298 14.909 2.86898 14.896 2.86898 14.902C2.86898 14.908 2.84898 14.935 2.83598 14.955C2.82298 14.975 2.82998 14.968 2.82298 14.975C2.81598 14.982 2.80998 15.008 2.80298 15.028C2.79598 15.048 2.79698 15.034 2.79698 15.041L0.0349823 23.341C-0.00485782 23.4568 -0.0111642 23.5815 0.0167898 23.7008C0.0447438 23.82 0.105821 23.929 0.192982 24.015C0.317845 24.1384 0.486435 24.2074 0.661982 24.207C0.733497 24.2057 0.804497 24.1946 0.872982 24.174L9.17298 21.406C9.17898 21.406 9.17898 21.406 9.18598 21.4C9.20679 21.3937 9.22663 21.3846 9.24498 21.373C9.24984 21.3724 9.2544 21.3703 9.25798 21.367C9.27798 21.354 9.30398 21.34 9.32398 21.327C9.34398 21.314 9.36398 21.294 9.38398 21.281C9.40398 21.268 9.39698 21.274 9.39698 21.268C9.39698 21.262 9.41698 21.255 9.42398 21.242L23.033 7.631C23.3399 7.32451 23.5833 6.96053 23.7495 6.55987C23.9156 6.15921 24.0011 5.72973 24.0011 5.296C24.0011 4.86227 23.9156 4.43279 23.7495 4.03213C23.5833 3.63147 23.3399 3.26749 23.033 2.961L21.244 1.178ZM8.95798 19.856L4.35798 15.256L15.867 3.754L20.467 8.354L8.95798 19.856ZM3.71398 16.481L7.72998 20.497L1.70098 22.505L3.71398 16.481ZM22.101 6.706L21.401 7.413L16.801 2.813L17.508 2.106C17.8794 1.73497 18.383 1.52656 18.908 1.52656C19.433 1.52656 19.9365 1.73497 20.308 2.106L22.108 3.906C22.4765 4.27914 22.6827 4.78279 22.6816 5.30724C22.6804 5.83169 22.4721 6.33445 22.102 6.706H22.101Z" fill="#004F04"/>
</svg>
