<svg width="28" height="25" viewBox="0 0 28 25" fill="none" xmlns="http://www.w3.org/2000/svg">
<path d="M22.109 4.43599H5.94596C5.87869 4.43613 5.81205 4.42297 5.74987 4.39729C5.68769 4.3716 5.6312 4.3339 5.58363 4.28633C5.53606 4.23876 5.49835 4.18226 5.47266 4.12008C5.44698 4.05791 5.43383 3.99127 5.43396 3.92399V2.59499C5.43396 1.99799 5.67112 1.42544 6.09326 1.0033C6.51541 0.581152 7.08796 0.343994 7.68496 0.343994L20.37 0.343994C20.967 0.343994 21.5395 0.581152 21.9617 1.0033C22.3838 1.42544 22.621 1.99799 22.621 2.59499V3.92399C22.6211 3.99127 22.6079 4.05791 22.5823 4.12008C22.5566 4.18226 22.5189 4.23876 22.4713 4.28633C22.4237 4.3339 22.3672 4.3716 22.305 4.39729C22.2429 4.42297 22.1762 4.43613 22.109 4.43599Z" fill="#004F04"/>
<path d="M24.36 6.073H3.69498C2.9627 6.07379 2.26063 6.36504 1.74283 6.88284C1.22503 7.40065 0.933777 8.10271 0.932983 8.835L0.932983 18.451C0.933777 19.1833 1.22503 19.8853 1.74283 20.4032C2.26063 20.921 2.9627 21.2122 3.69498 21.213H5.43298V17.121C5.43404 16.1445 5.82241 15.2084 6.51288 14.5179C7.20335 13.8274 8.13952 13.4391 9.11598 13.438H18.933C19.9095 13.4391 20.8456 13.8274 21.5361 14.5179C22.2266 15.2084 22.6149 16.1445 22.616 17.121V21.213H24.355C25.0873 21.2122 25.7893 20.921 26.3071 20.4032C26.8249 19.8853 27.1162 19.1833 27.117 18.451V8.835C27.1162 8.10358 26.8256 7.40227 26.3089 6.88461C25.7922 6.36694 25.0914 6.07511 24.36 6.073ZM5.84398 12.211C5.67984 12.2157 5.51642 12.1874 5.3634 12.1278C5.21037 12.0682 5.07086 11.9786 4.95309 11.8641C4.83533 11.7497 4.74172 11.6128 4.6778 11.4615C4.61388 11.3103 4.58094 11.1477 4.58094 10.9835C4.58094 10.8193 4.61388 10.6567 4.6778 10.5055C4.74172 10.3542 4.83533 10.2173 4.95309 10.1029C5.07086 9.98842 5.21037 9.89876 5.3634 9.83918C5.51642 9.7796 5.67984 9.75131 5.84398 9.756V9.756C6.00813 9.75131 6.17155 9.7796 6.32457 9.83918C6.47759 9.89876 6.61711 9.98842 6.73487 10.1029C6.85263 10.2173 6.94624 10.3542 7.01017 10.5055C7.07409 10.6567 7.10702 10.8193 7.10702 10.9835C7.10702 11.1477 7.07409 11.3103 7.01017 11.4615C6.94624 11.6128 6.85263 11.7497 6.73487 11.8641C6.61711 11.9786 6.47759 12.0682 6.32457 12.1278C6.17155 12.1874 6.00813 12.2157 5.84398 12.211Z" fill="#004F04"/>
<path d="M18.937 15.894H9.11598C8.79047 15.8943 8.47837 16.0237 8.24829 16.254C8.01821 16.4843 7.88898 16.7965 7.88898 17.122V22.851C7.88898 23.0123 7.92074 23.172 7.98245 23.3209C8.04417 23.4699 8.13463 23.6053 8.24866 23.7193C8.36269 23.8333 8.49806 23.9238 8.64705 23.9855C8.79604 24.0472 8.95571 24.079 9.11697 24.079H18.938C19.2637 24.079 19.576 23.9496 19.8063 23.7193C20.0366 23.489 20.166 23.1767 20.166 22.851V17.122C20.166 16.9606 20.1342 16.8009 20.0724 16.6518C20.0106 16.5028 19.9201 16.3674 19.806 16.2533C19.6918 16.1393 19.5563 16.0489 19.4072 15.9872C19.2581 15.9255 19.0983 15.8939 18.937 15.894Z" fill="#004F04"/>
</svg>
