<svg width="24" height="24" viewBox="0 0 24 24" fill="none" xmlns="http://www.w3.org/2000/svg">
<path d="M23.64 21.96L18.24 16.56C19.6422 14.7365 20.4017 12.5003 20.4 10.2C20.4 8.18264 19.8018 6.21057 18.681 4.53319C17.5602 2.85581 15.9672 1.54845 14.1034 0.776433C12.2396 0.00441951 10.1887 -0.197575 8.21008 0.195995C6.23148 0.589564 4.41401 1.56102 2.98752 2.98752C1.56102 4.41401 0.589564 6.23148 0.195995 8.21008C-0.197575 10.1887 0.00441986 12.2396 0.776434 14.1034C1.54845 15.9672 2.85581 17.5602 4.53319 18.681C6.21057 19.8018 8.18264 20.4 10.2 20.4C12.497 20.382 14.7271 19.6246 16.56 18.24L21.96 23.64C22.0683 23.7538 22.1987 23.8443 22.3431 23.9062C22.4875 23.9681 22.6429 24 22.8 24C22.9571 24 23.1126 23.9681 23.257 23.9062C23.4013 23.8443 23.5317 23.7538 23.64 23.64C23.7538 23.5317 23.8443 23.4013 23.9062 23.257C23.9681 23.1126 24 22.9571 24 22.8C24 22.6429 23.9681 22.4875 23.9062 22.3431C23.8443 22.1987 23.7538 22.0683 23.64 21.96ZM2.403 10.2C2.403 9.17569 2.60476 8.16141 2.99674 7.21507C3.38873 6.26873 3.96327 5.40887 4.68757 4.68457C5.41187 3.96027 6.27173 3.38573 7.21807 2.99374C8.16441 2.60176 9.17869 2.4 10.203 2.4C11.2273 2.4 12.2416 2.60176 13.1879 2.99374C14.1343 3.38573 14.9941 3.96027 15.7184 4.68457C16.4427 5.40887 17.0173 6.26873 17.4093 7.21507C17.8013 8.16141 18.003 9.17569 18.003 10.2C18.0097 11.2256 17.8115 12.2421 17.42 13.1901C17.0285 14.138 16.4515 14.9981 15.723 15.72C15.0011 16.4485 14.141 17.0255 13.1931 17.417C12.2451 17.8085 11.2286 18.0067 10.203 18C9.1781 18.0021 8.16287 17.8018 7.21558 17.4106C6.26829 17.0193 5.40759 16.4449 4.68287 15.7201C3.95815 14.9954 3.38369 14.1347 2.99245 13.1874C2.60121 12.2401 2.4009 11.2249 2.403 10.2Z" fill="#848B96"/>
</svg>
