<svg width="18" height="18" viewBox="0 0 18 18" fill="none" xmlns="http://www.w3.org/2000/svg">
<path d="M16.875 15.75H15.75V13.5C15.75 13.2016 15.6315 12.9155 15.4205 12.7045C15.2095 12.4935 14.9234 12.375 14.625 12.375C14.3266 12.375 14.0405 12.4935 13.8295 12.7045C13.6185 12.9155 13.5 13.2016 13.5 13.5V15.75H4.5V13.5C4.5 13.2016 4.38147 12.9155 4.1705 12.7045C3.95952 12.4935 3.67337 12.375 3.375 12.375C3.07663 12.375 2.79048 12.4935 2.5795 12.7045C2.36853 12.9155 2.25 13.2016 2.25 13.5V15.75H1.125C0.826631 15.75 0.540483 15.8685 0.329505 16.0795C0.118526 16.2905 0 16.5766 0 16.875C0 17.1734 0.118526 17.4595 0.329505 17.6705C0.540483 17.8815 0.826631 18 1.125 18H16.875C17.1734 18 17.4595 17.8815 17.6705 17.6705C17.8815 17.4595 18 17.1734 18 16.875C18 16.5766 17.8815 16.2905 17.6705 16.0795C17.4595 15.8685 17.1734 15.75 16.875 15.75ZM16.875 0H1.125C0.826631 0 0.540483 0.118526 0.329505 0.329505C0.118526 0.540483 0 0.826631 0 1.125L0 7.875C0 8.47174 0.237053 9.04403 0.65901 9.46599C1.08097 9.88795 1.65326 10.125 2.25 10.125C2.84674 10.125 3.41903 9.88795 3.84099 9.46599C4.26295 9.04403 4.5 8.47174 4.5 7.875C4.5 8.47174 4.73705 9.04403 5.15901 9.46599C5.58097 9.88795 6.15326 10.125 6.75 10.125C7.34674 10.125 7.91903 9.88795 8.34099 9.46599C8.76295 9.04403 9 8.47174 9 7.875C9 8.47174 9.23705 9.04403 9.65901 9.46599C10.081 9.88795 10.6533 10.125 11.25 10.125C11.8467 10.125 12.419 9.88795 12.841 9.46599C13.2629 9.04403 13.5 8.47174 13.5 7.875C13.5 8.47174 13.7371 9.04403 14.159 9.46599C14.581 9.88795 15.1533 10.125 15.75 10.125C16.3467 10.125 16.919 9.88795 17.341 9.46599C17.7629 9.04403 18 8.47174 18 7.875V1.125C18 0.826631 17.8815 0.540483 17.6705 0.329505C17.4595 0.118526 17.1734 0 16.875 0V0Z" fill="#848B96"/>
</svg>
